<svg width="159" height="65" viewBox="0 0 159 65" fill="none" xmlns="http://www.w3.org/2000/svg">
<g filter="url(#filter0_d_741_59)">
<path d="M32 9C22.4694 9 13.9266 12.696 8 18.6L32 57L56 18.6C50.1001 12.72 41.5306 9 32 9ZM18.6518 21C18.6518 18.36 21.0545 16.2 23.9911 16.2C26.9277 16.2 29.3304 18.36 29.3304 21C29.3304 23.64 26.9277 25.8 23.9911 25.8C21.0545 25.8 18.6518 23.64 18.6518 21ZM32 40.2C29.0634 40.2 26.6607 38.04 26.6607 35.4C26.6607 32.76 29.0634 30.6 32 30.6C34.9366 30.6 37.3393 32.76 37.3393 35.4C37.3393 38.04 34.9366 40.2 32 40.2Z" fill="#F07807"/>
<path d="M75.1719 10.1094H74.8906C73.4688 10.1094 72.3984 10.4336 71.6797 11.082C70.8125 11.8633 70.3789 13.1562 70.3789 14.9609C70.3789 15.4609 70.4336 15.8594 70.543 16.1562C70.5742 16.2578 70.6133 16.3477 70.6602 16.4258C70.6914 16.4805 70.707 16.5352 70.707 16.5898C69.8398 16.5898 69.207 16.418 68.8086 16.0742C68.3633 15.6992 68.1406 15.0977 68.1406 14.2695C68.1406 13.4414 68.293 12.6562 68.5977 11.9141C68.9102 11.1641 69.3828 10.5078 70.0156 9.94531C70.6953 9.33594 71.5586 8.86328 72.6055 8.52734C73.6602 8.19141 74.9023 8.02344 76.332 8.02344C77.1523 8.02344 77.9375 8.07031 78.6875 8.16406C78.9219 8.1875 79.2266 8.23047 79.6016 8.29297C80.2266 8.41016 80.8281 8.48828 81.4062 8.52734C81.6875 8.55859 82.043 8.57422 82.4727 8.57422C83.0039 8.57422 83.5117 8.52734 83.9961 8.43359C84.4805 8.33984 84.9023 8.21875 85.2617 8.07031C85.2227 9.11719 84.9531 9.88672 84.4531 10.3789C83.9609 10.8711 83.2305 11.1172 82.2617 11.1172C81.7383 11.1172 81.2109 11.0742 80.6797 10.9883C80.1484 10.9023 79.4336 10.7695 78.5352 10.5898L75.2188 26H71.7734L75.1719 10.1094ZM83.0586 26.0938C81.8711 26.0938 80.9531 25.8047 80.3047 25.2266C79.5781 24.5859 79.2148 23.6133 79.2148 22.3086C79.2148 21.8164 79.2656 21.2734 79.3672 20.6797C79.4688 20.0781 79.625 19.4727 79.8359 18.8633C80.3203 17.4102 81.0117 16.25 81.9102 15.3828C82.9961 14.3203 84.2891 13.7891 85.7891 13.7891C87.8438 13.7891 88.8711 15.0664 88.8711 17.6211V17.6445C88.918 17.6602 88.957 17.668 88.9883 17.668H89.1289C89.6602 17.668 90.2891 17.5195 91.0156 17.2227C91.6562 16.957 92.2617 16.625 92.832 16.2266L93.043 16.8828C92.5742 17.375 91.9688 17.793 91.2266 18.1367C90.4922 18.4805 89.6797 18.7266 88.7891 18.875C88.6953 19.9609 88.4844 20.9531 88.1562 21.8516C87.8281 22.7422 87.4062 23.5078 86.8906 24.1484C86.3828 24.7734 85.8008 25.2539 85.1445 25.5898C84.4883 25.9258 83.793 26.0938 83.0586 26.0938ZM84.0195 23.9375C84.3008 23.9375 84.5859 23.8125 84.875 23.5625C85.1719 23.3047 85.4492 22.9492 85.707 22.4961C85.9648 22.043 86.1875 21.5117 86.375 20.9023C86.5625 20.293 86.7031 19.6406 86.7969 18.9453C86.5625 18.8828 86.3945 18.7656 86.293 18.5938C86.1992 18.4219 86.1523 18.2031 86.1523 17.9375C86.1523 17.6094 86.2188 17.3359 86.3516 17.1172C86.4844 16.8984 86.668 16.7383 86.9023 16.6367C86.8711 16.1289 86.7891 15.7656 86.6562 15.5469C86.5859 15.4375 86.4961 15.3594 86.3867 15.3125C86.2852 15.2656 86.1523 15.2422 85.9883 15.2422C85.4492 15.2422 84.9219 15.6484 84.4062 16.4609C83.9297 17.1953 83.5391 18.1016 83.2344 19.1797C82.9375 20.2344 82.7891 21.1719 82.7891 21.9922C82.7891 22.3906 82.8086 22.7148 82.8477 22.9648C82.8945 23.2148 82.9688 23.4102 83.0703 23.5508C83.1641 23.6914 83.2852 23.793 83.4336 23.8555C83.582 23.9102 83.7773 23.9375 84.0195 23.9375ZM98.7617 26.1406C97.7695 26.1406 97.0352 25.8594 96.5586 25.2969C96.1445 24.8125 95.9375 24.1914 95.9375 23.4336C95.9375 23.0742 95.9805 22.6562 96.0664 22.1797C96.1602 21.7031 96.2969 21.0898 96.4766 20.3398C96.6562 19.5742 96.7891 18.9648 96.875 18.5117C96.9688 18.0508 97.0156 17.6523 97.0156 17.3164C97.0156 16.4961 96.7266 16.0859 96.1484 16.0859C95.7422 16.0859 95.3672 16.3008 95.0234 16.7305C94.7344 17.0977 94.4844 17.6211 94.2734 18.3008L92.6445 26H89.1875L91.7305 14H95.1875L94.9297 15.2422C95.3984 14.7188 95.9023 14.3516 96.4414 14.1406C96.8398 13.9844 97.2695 13.9062 97.7305 13.9062C98.543 13.9062 99.1836 14.1172 99.6523 14.5391C100.152 15 100.402 15.6914 100.402 16.6133C100.402 17.168 100.301 17.8906 100.098 18.7812C100.043 19.0391 99.9531 19.4258 99.8281 19.9414C99.6016 20.8086 99.4375 21.5 99.3359 22.0156C99.2734 22.3438 99.2422 22.6094 99.2422 22.8125C99.2422 23.1328 99.3125 23.3828 99.4531 23.5625C99.6016 23.7344 99.8516 23.8203 100.203 23.8203C100.68 23.8203 101.082 23.625 101.41 23.2344C101.66 22.9375 101.93 22.4258 102.219 21.6992H103.227C102.633 23.457 101.883 24.6875 100.977 25.3906C100.336 25.8906 99.5977 26.1406 98.7617 26.1406ZM105.957 32C105.582 32 105.23 31.9492 104.902 31.8477C104.582 31.7539 104.305 31.6094 104.07 31.4141C103.82 31.2188 103.625 30.9727 103.484 30.6758C103.344 30.3867 103.273 30.0508 103.273 29.668C103.273 28.7617 103.699 27.9844 104.551 27.3359C105.191 26.8594 106.07 26.4453 107.188 26.0938L107.48 24.8047C107.012 25.3203 106.504 25.6836 105.957 25.8945C105.535 26.0586 105.082 26.1406 104.598 26.1406C103.832 26.1406 103.227 25.9141 102.781 25.4609C102.281 24.9609 102.031 24.2305 102.031 23.2695C102.031 22.8164 102.094 22.293 102.219 21.6992L103.848 14H107.305L105.582 22.1562C105.535 22.3516 105.512 22.5547 105.512 22.7656C105.512 23.0703 105.562 23.3125 105.664 23.4922C105.781 23.7109 105.969 23.8203 106.227 23.8203C106.648 23.8203 107.027 23.6328 107.363 23.2578C107.652 22.9375 107.898 22.4688 108.102 21.8516L109.777 14H113.234L110.855 25.1328C111.613 24.8828 112.219 24.5078 112.672 24.0078C113.164 23.4688 113.566 22.6992 113.879 21.6992H114.887C114.457 23.1211 113.816 24.2188 112.965 24.9922C112.34 25.5547 111.566 25.9531 110.645 26.1875L110.281 27.9219C109.977 29.4531 109.367 30.5625 108.453 31.25C107.789 31.75 106.957 32 105.957 32ZM105.406 30.125C105.648 30.125 105.906 29.9492 106.18 29.5977C106.445 29.2539 106.652 28.7188 106.801 27.9922L106.941 27.3008C106.215 27.5742 105.672 27.8516 105.312 28.1328C104.836 28.4922 104.598 28.8945 104.598 29.3398C104.598 29.5508 104.664 29.7266 104.797 29.8672C104.945 30.0391 105.148 30.125 105.406 30.125ZM73.5195 40.7305L77.0703 40.2617L75.3711 48.2773C76.1289 48.2227 76.8516 47.8711 77.5391 47.2227C78.1641 46.6367 78.6602 45.8945 79.0273 44.9961C79.3867 44.1367 79.5664 43.2617 79.5664 42.3711C79.5664 41.4336 79.3359 40.6641 78.875 40.0625C78.625 39.7578 78.3086 39.5234 77.9258 39.3594C77.543 39.1875 77.0977 39.1016 76.5898 39.1016C75.6211 39.1016 74.75 39.2344 73.9766 39.5C73.2109 39.7656 72.5586 40.1484 72.0195 40.6484C71.4805 41.1484 71.0703 41.7617 70.7891 42.4883C70.5156 43.2148 70.3789 44.0312 70.3789 44.9375C70.3789 45.4375 70.4336 45.8359 70.543 46.1328C70.5742 46.2344 70.6133 46.3242 70.6602 46.4023C70.6914 46.457 70.707 46.5117 70.707 46.5664C69.8398 46.5664 69.207 46.3945 68.8086 46.0508C68.3633 45.6758 68.1406 45.0703 68.1406 44.2344C68.1406 43.7109 68.2539 43.1953 68.4805 42.6875C68.707 42.1719 69.0273 41.6758 69.4414 41.1992C69.832 40.7461 70.2969 40.3242 70.8359 39.9336C71.3828 39.5352 71.9727 39.1914 72.6055 38.9023C73.9336 38.3008 75.2539 38 76.5664 38C78.418 38 79.8555 38.4805 80.8789 39.4414C81.332 39.8711 81.668 40.3672 81.8867 40.9297C82.1133 41.4922 82.2266 42.0898 82.2266 42.7227C82.2266 43.4961 82.0664 44.2656 81.7461 45.0312C81.4336 45.7969 80.9805 46.4805 80.3867 47.082C79.7617 47.7227 79.0156 48.2305 78.1484 48.6055C77.2891 48.9727 76.3398 49.1562 75.3008 49.1562H75.1719L73.707 56H70.2617L73.5195 40.7305ZM85.7656 42.6992C85.5078 42.6992 85.2617 42.6523 85.0273 42.5586C84.793 42.457 84.5898 42.3203 84.418 42.1484C84.2461 41.9844 84.1094 41.7852 84.0078 41.5508C83.9141 41.3164 83.8672 41.0703 83.8672 40.8125C83.8672 40.5547 83.9141 40.3086 84.0078 40.0742C84.1094 39.8398 84.2461 39.6328 84.418 39.4531C84.5898 39.2734 84.793 39.1367 85.0273 39.043C85.2617 38.9414 85.5078 38.8906 85.7656 38.8906C86.0234 38.8906 86.2695 38.9414 86.5039 39.043C86.7383 39.1367 86.9453 39.2734 87.125 39.4531C87.3047 39.6328 87.4414 39.8398 87.5352 40.0742C87.6367 40.3086 87.6875 40.5547 87.6875 40.8125C87.6875 41.0703 87.6367 41.3164 87.5352 41.5508C87.4414 41.7852 87.3047 41.9844 87.125 42.1484C86.9453 42.3203 86.7383 42.457 86.5039 42.5586C86.2695 42.6523 86.0234 42.6992 85.7656 42.6992ZM84.1367 56.1406C83.3711 56.1406 82.7656 55.9141 82.3203 55.4609C81.8203 54.9609 81.5703 54.2305 81.5703 53.2695C81.5703 52.8164 81.6328 52.293 81.7578 51.6992L83.3867 44H86.8438L85.1211 52.1562C85.0586 52.3594 85.0273 52.6172 85.0273 52.9297C85.0273 53.2578 85.1016 53.4883 85.25 53.6211C85.4062 53.7539 85.6562 53.8203 86 53.8203C86.2344 53.8203 86.4609 53.7695 86.6797 53.668C86.9062 53.5586 87.1133 53.4102 87.3008 53.2227C87.6836 52.8398 87.9727 52.332 88.168 51.6992H89.1758C88.7461 52.9102 88.207 53.875 87.5586 54.5938C87.0117 55.1797 86.3945 55.6016 85.707 55.8594C85.207 56.0469 84.6836 56.1406 84.1367 56.1406ZM94.2969 45.3008H92.9609C92.5312 45.3008 92.2188 45.3203 92.0234 45.3594C91.7656 45.4062 91.6367 45.5117 91.6367 45.6758C91.6367 45.7148 91.6523 45.7383 91.6836 45.7461C91.7461 45.7617 91.8047 45.8164 91.8594 45.9102C91.8828 45.9648 91.8945 46.0625 91.8945 46.2031C91.8945 46.625 91.7617 46.9492 91.4961 47.1758C91.2461 47.3789 90.9492 47.4805 90.6055 47.4805C90.3242 47.4805 90.0742 47.3906 89.8555 47.2109C89.6211 47.0156 89.5039 46.7539 89.5039 46.4258C89.5039 46.1758 89.5703 45.9102 89.7031 45.6289C89.8359 45.3398 90.0195 45.0781 90.2539 44.8438C90.5039 44.5859 90.8008 44.3828 91.1445 44.2344C91.4961 44.0781 91.875 44 92.2812 44H98.457L92.5742 54.1484C92.6523 54.1562 92.9258 54.1836 93.3945 54.2305C93.7227 54.2773 94.0547 54.3008 94.3906 54.3008C94.7188 54.3008 94.9805 54.2656 95.1758 54.1953C95.3711 54.125 95.4883 54 95.5273 53.8203C95.3711 53.8047 95.2539 53.7539 95.1758 53.668C95.1055 53.5742 95.0703 53.457 95.0703 53.3164C95.0703 53.1992 95.0977 53.082 95.1523 52.9648C95.2148 52.8398 95.3008 52.7266 95.4102 52.625C95.6758 52.3984 96.0078 52.2852 96.4062 52.2852C96.7656 52.2852 97.0312 52.3906 97.2031 52.6016C97.3828 52.8125 97.4727 53.0898 97.4727 53.4336C97.4727 53.7148 97.4062 54.0078 97.2734 54.3125C97.1406 54.6094 96.9492 54.8828 96.6992 55.1328C96.4336 55.3984 96.1172 55.6094 95.75 55.7656C95.3906 55.9219 94.9883 56 94.543 56H88.1797L94.2969 45.3008ZM104.586 45.3008H103.25C102.82 45.3008 102.508 45.3203 102.312 45.3594C102.055 45.4062 101.926 45.5117 101.926 45.6758C101.926 45.7148 101.941 45.7383 101.973 45.7461C102.035 45.7617 102.094 45.8164 102.148 45.9102C102.172 45.9648 102.184 46.0625 102.184 46.2031C102.184 46.625 102.051 46.9492 101.785 47.1758C101.535 47.3789 101.238 47.4805 100.895 47.4805C100.613 47.4805 100.363 47.3906 100.145 47.2109C99.9102 47.0156 99.793 46.7539 99.793 46.4258C99.793 46.1758 99.8594 45.9102 99.9922 45.6289C100.125 45.3398 100.309 45.0781 100.543 44.8438C100.793 44.5859 101.09 44.3828 101.434 44.2344C101.785 44.0781 102.164 44 102.57 44H108.746L102.863 54.1484C102.941 54.1562 103.215 54.1836 103.684 54.2305C104.012 54.2773 104.344 54.3008 104.68 54.3008C105.008 54.3008 105.27 54.2656 105.465 54.1953C105.66 54.125 105.777 54 105.816 53.8203C105.66 53.8047 105.543 53.7539 105.465 53.668C105.395 53.5742 105.359 53.457 105.359 53.3164C105.359 53.1992 105.387 53.082 105.441 52.9648C105.504 52.8398 105.59 52.7266 105.699 52.625C105.965 52.3984 106.297 52.2852 106.695 52.2852C107.055 52.2852 107.32 52.3906 107.492 52.6016C107.672 52.8125 107.762 53.0898 107.762 53.4336C107.762 53.7148 107.695 54.0078 107.562 54.3125C107.43 54.6094 107.238 54.8828 106.988 55.1328C106.723 55.3984 106.406 55.6094 106.039 55.7656C105.68 55.9219 105.277 56 104.832 56H98.4688L104.586 45.3008ZM111.641 56.1406C110.727 56.1406 109.988 55.8555 109.426 55.2852C108.77 54.6133 108.441 53.6133 108.441 52.2852C108.441 51.7227 108.5 51.1289 108.617 50.5039C108.727 49.8789 108.891 49.2617 109.109 48.6523C109.609 47.2773 110.293 46.168 111.16 45.3242C112.16 44.3633 113.312 43.8828 114.617 43.8828C115.266 43.8828 115.75 43.9961 116.07 44.2227C116.398 44.4414 116.562 44.7344 116.562 45.1016V45.2773L116.82 44H120.277L118.555 52.1562C118.484 52.3906 118.449 52.6484 118.449 52.9297C118.449 53.6172 118.777 53.9609 119.434 53.9609C119.871 53.9609 120.27 53.7383 120.629 53.293C120.934 52.918 121.184 52.3867 121.379 51.6992H122.387C121.957 52.918 121.438 53.8828 120.828 54.5938C120.312 55.1797 119.73 55.6016 119.082 55.8594C118.605 56.0469 118.102 56.1406 117.57 56.1406C116.891 56.1406 116.348 55.957 115.941 55.5898C115.543 55.2148 115.301 54.6641 115.215 53.9375C114.762 54.5781 114.285 55.0781 113.785 55.4375C113.145 55.9062 112.43 56.1406 111.641 56.1406ZM113.199 53.8203C113.379 53.8203 113.566 53.7734 113.762 53.6797C113.965 53.5859 114.16 53.4531 114.348 53.2812C114.77 52.875 115.051 52.3477 115.191 51.6992L116.34 46.2852C116.34 46.207 116.32 46.1172 116.281 46.0156C116.25 45.9062 116.203 45.8047 116.141 45.7109C115.953 45.4844 115.691 45.3711 115.355 45.3711C115.035 45.3711 114.723 45.4766 114.418 45.6875C114.121 45.8984 113.84 46.1914 113.574 46.5664C113.105 47.2461 112.719 48.1328 112.414 49.2266C112.273 49.7109 112.168 50.1914 112.098 50.668C112.027 51.1367 111.992 51.5625 111.992 51.9453C111.992 52.7422 112.141 53.2812 112.438 53.5625C112.539 53.6719 112.652 53.7422 112.777 53.7734C112.902 53.8047 113.043 53.8203 113.199 53.8203ZM123.02 44H126.477L126.172 45.4883C126.719 45.0039 127.164 44.6602 127.508 44.457C128.039 44.1523 128.559 44 129.066 44C129.582 44 129.996 44.1836 130.309 44.5508C130.449 44.7148 130.555 44.9062 130.625 45.125C130.695 45.3359 130.73 45.5625 130.73 45.8047C130.73 46.0234 130.695 46.2344 130.625 46.4375C130.555 46.6406 130.449 46.8242 130.309 46.9883C130.152 47.1602 129.961 47.2969 129.734 47.3984C129.516 47.5 129.27 47.5508 128.996 47.5508C128.785 47.5508 128.617 47.5156 128.492 47.4453C128.367 47.375 128.27 47.2734 128.199 47.1406C128.137 47.0078 128.094 46.8789 128.07 46.7539C128 46.418 127.93 46.1953 127.859 46.0859C127.805 46.0078 127.719 45.9688 127.602 45.9688C127.266 45.9688 126.98 46.0391 126.746 46.1797C126.512 46.3203 126.215 46.5547 125.855 46.8828L123.934 56H120.477L123.02 44ZM134.422 42.6992C134.164 42.6992 133.918 42.6523 133.684 42.5586C133.449 42.457 133.246 42.3203 133.074 42.1484C132.902 41.9844 132.766 41.7852 132.664 41.5508C132.57 41.3164 132.523 41.0703 132.523 40.8125C132.523 40.5547 132.57 40.3086 132.664 40.0742C132.766 39.8398 132.902 39.6328 133.074 39.4531C133.246 39.2734 133.449 39.1367 133.684 39.043C133.918 38.9414 134.164 38.8906 134.422 38.8906C134.68 38.8906 134.926 38.9414 135.16 39.043C135.395 39.1367 135.602 39.2734 135.781 39.4531C135.961 39.6328 136.098 39.8398 136.191 40.0742C136.293 40.3086 136.344 40.5547 136.344 40.8125C136.344 41.0703 136.293 41.3164 136.191 41.5508C136.098 41.7852 135.961 41.9844 135.781 42.1484C135.602 42.3203 135.395 42.457 135.16 42.5586C134.926 42.6523 134.68 42.6992 134.422 42.6992ZM132.793 56.1406C132.027 56.1406 131.422 55.9141 130.977 55.4609C130.477 54.9609 130.227 54.2305 130.227 53.2695C130.227 52.8164 130.289 52.293 130.414 51.6992L132.043 44H135.5L133.777 52.1562C133.715 52.3594 133.684 52.6172 133.684 52.9297C133.684 53.2578 133.758 53.4883 133.906 53.6211C134.062 53.7539 134.312 53.8203 134.656 53.8203C134.891 53.8203 135.117 53.7695 135.336 53.668C135.562 53.5586 135.77 53.4102 135.957 53.2227C136.34 52.8398 136.629 52.332 136.824 51.6992H137.832C137.402 52.9102 136.863 53.875 136.215 54.5938C135.668 55.1797 135.051 55.6016 134.363 55.8594C133.863 56.0469 133.34 56.1406 132.793 56.1406ZM139.719 56.1406C138.805 56.1406 138.066 55.8555 137.504 55.2852C136.848 54.6133 136.52 53.6133 136.52 52.2852C136.52 51.7227 136.578 51.1289 136.695 50.5039C136.805 49.8789 136.969 49.2617 137.188 48.6523C137.688 47.2773 138.371 46.168 139.238 45.3242C140.238 44.3633 141.391 43.8828 142.695 43.8828C143.344 43.8828 143.828 43.9961 144.148 44.2227C144.477 44.4414 144.641 44.7344 144.641 45.1016V45.2773L144.898 44H148.355L146.633 52.1562C146.562 52.3906 146.527 52.6484 146.527 52.9297C146.527 53.6172 146.855 53.9609 147.512 53.9609C147.949 53.9609 148.348 53.7383 148.707 53.293C149.012 52.918 149.262 52.3867 149.457 51.6992H150.465C150.035 52.918 149.516 53.8828 148.906 54.5938C148.391 55.1797 147.809 55.6016 147.16 55.8594C146.684 56.0469 146.18 56.1406 145.648 56.1406C144.969 56.1406 144.426 55.957 144.02 55.5898C143.621 55.2148 143.379 54.6641 143.293 53.9375C142.84 54.5781 142.363 55.0781 141.863 55.4375C141.223 55.9062 140.508 56.1406 139.719 56.1406ZM141.277 53.8203C141.457 53.8203 141.645 53.7734 141.84 53.6797C142.043 53.5859 142.238 53.4531 142.426 53.2812C142.848 52.875 143.129 52.3477 143.27 51.6992L144.418 46.2852C144.418 46.207 144.398 46.1172 144.359 46.0156C144.328 45.9062 144.281 45.8047 144.219 45.7109C144.031 45.4844 143.77 45.3711 143.434 45.3711C143.113 45.3711 142.801 45.4766 142.496 45.6875C142.199 45.8984 141.918 46.1914 141.652 46.5664C141.184 47.2461 140.797 48.1328 140.492 49.2266C140.352 49.7109 140.246 50.1914 140.176 50.668C140.105 51.1367 140.07 51.5625 140.07 51.9453C140.07 52.7422 140.219 53.2812 140.516 53.5625C140.617 53.6719 140.73 53.7422 140.855 53.7734C140.98 53.8047 141.121 53.8203 141.277 53.8203Z" fill="#F07807"/>
</g>
<defs>
<filter id="filter0_d_741_59" x="0" y="0.0234375" width="158.465" height="64.9766" filterUnits="userSpaceOnUse" color-interpolation-filters="sRGB">
<feFlood flood-opacity="0" result="BackgroundImageFix"/>
<feColorMatrix in="SourceAlpha" type="matrix" values="0 0 0 0 0 0 0 0 0 0 0 0 0 0 0 0 0 0 127 0" result="hardAlpha"/>
<feOffset/>
<feGaussianBlur stdDeviation="4"/>
<feComposite in2="hardAlpha" operator="out"/>
<feColorMatrix type="matrix" values="0 0 0 0 0.996078 0 0 0 0 0.94902 0 0 0 0 0.905882 0 0 0 1 0"/>
<feBlend mode="normal" in2="BackgroundImageFix" result="effect1_dropShadow_741_59"/>
<feBlend mode="normal" in="SourceGraphic" in2="effect1_dropShadow_741_59" result="shape"/>
</filter>
</defs>
</svg>
